<mxfile host="app.diagrams.net" modified="2023-08-18T13:00:29.979Z" agent="Mozilla/5.0 (Windows NT 10.0; Win64; x64) AppleWebKit/537.36 (KHTML, like Gecko) Chrome/115.0.0.0 Safari/537.36 Edg/115.0.1901.203" version="21.6.8" etag="yztUzFR-b-E5P88XaeUU" type="device">
  <diagram id="C5RBs43oDa-KdzZeNtuy" name="Page-1">
    <mxGraphModel dx="1379" dy="756" grid="1" gridSize="10" guides="1" tooltips="1" connect="1" arrows="1" fold="1" page="1" pageScale="1" pageWidth="827" pageHeight="1169" math="0" shadow="0">
      <root>
        <mxCell id="WIyWlLk6GJQsqaUBKTNV-0" />
        <mxCell id="WIyWlLk6GJQsqaUBKTNV-1" parent="WIyWlLk6GJQsqaUBKTNV-0" />
        <mxCell id="e43gsBU2ThRUack3cbK4-0" style="edgeStyle=orthogonalEdgeStyle;rounded=0;orthogonalLoop=1;jettySize=auto;html=1;entryX=0.5;entryY=0;entryDx=0;entryDy=0;" edge="1" parent="WIyWlLk6GJQsqaUBKTNV-1" source="e43gsBU2ThRUack3cbK4-1" target="e43gsBU2ThRUack3cbK4-4">
          <mxGeometry relative="1" as="geometry" />
        </mxCell>
        <mxCell id="e43gsBU2ThRUack3cbK4-1" value="makeOrder()" style="rounded=1;whiteSpace=wrap;html=1;fontSize=12;glass=0;strokeWidth=1;shadow=0;" vertex="1" parent="WIyWlLk6GJQsqaUBKTNV-1">
          <mxGeometry x="340" y="100" width="120" height="40" as="geometry" />
        </mxCell>
        <mxCell id="e43gsBU2ThRUack3cbK4-2" value="" style="edgeStyle=orthogonalEdgeStyle;rounded=0;orthogonalLoop=1;jettySize=auto;html=1;" edge="1" parent="WIyWlLk6GJQsqaUBKTNV-1" source="e43gsBU2ThRUack3cbK4-4" target="e43gsBU2ThRUack3cbK4-6">
          <mxGeometry relative="1" as="geometry" />
        </mxCell>
        <mxCell id="e43gsBU2ThRUack3cbK4-3" value="&lt;b&gt;Execute asynchronously&lt;/b&gt;" style="edgeLabel;html=1;align=center;verticalAlign=middle;resizable=0;points=[];" vertex="1" connectable="0" parent="e43gsBU2ThRUack3cbK4-2">
          <mxGeometry x="-0.16" y="1" relative="1" as="geometry">
            <mxPoint as="offset" />
          </mxGeometry>
        </mxCell>
        <mxCell id="e43gsBU2ThRUack3cbK4-4" value="Get customer&#39;s info" style="rounded=1;whiteSpace=wrap;html=1;fontSize=12;glass=0;strokeWidth=1;shadow=0;" vertex="1" parent="WIyWlLk6GJQsqaUBKTNV-1">
          <mxGeometry x="340" y="170" width="120" height="40" as="geometry" />
        </mxCell>
        <mxCell id="e43gsBU2ThRUack3cbK4-5" style="edgeStyle=orthogonalEdgeStyle;rounded=0;orthogonalLoop=1;jettySize=auto;html=1;entryX=0.5;entryY=0;entryDx=0;entryDy=0;" edge="1" parent="WIyWlLk6GJQsqaUBKTNV-1" source="e43gsBU2ThRUack3cbK4-6" target="e43gsBU2ThRUack3cbK4-11">
          <mxGeometry relative="1" as="geometry" />
        </mxCell>
        <mxCell id="e43gsBU2ThRUack3cbK4-6" value="Make payment&lt;br&gt;Subtract stock&lt;br&gt;Add order" style="rounded=1;whiteSpace=wrap;html=1;fontSize=12;glass=0;strokeWidth=1;shadow=0;" vertex="1" parent="WIyWlLk6GJQsqaUBKTNV-1">
          <mxGeometry x="330" y="260" width="140" height="60" as="geometry" />
        </mxCell>
        <mxCell id="e43gsBU2ThRUack3cbK4-7" style="edgeStyle=orthogonalEdgeStyle;rounded=0;orthogonalLoop=1;jettySize=auto;html=1;entryX=0;entryY=0.5;entryDx=0;entryDy=0;" edge="1" parent="WIyWlLk6GJQsqaUBKTNV-1" source="e43gsBU2ThRUack3cbK4-11" target="e43gsBU2ThRUack3cbK4-12">
          <mxGeometry relative="1" as="geometry" />
        </mxCell>
        <mxCell id="e43gsBU2ThRUack3cbK4-8" value="&lt;b&gt;Failure&lt;/b&gt;" style="edgeLabel;html=1;align=center;verticalAlign=middle;resizable=0;points=[];" vertex="1" connectable="0" parent="e43gsBU2ThRUack3cbK4-7">
          <mxGeometry x="-0.28" relative="1" as="geometry">
            <mxPoint x="2" as="offset" />
          </mxGeometry>
        </mxCell>
        <mxCell id="e43gsBU2ThRUack3cbK4-9" style="edgeStyle=orthogonalEdgeStyle;rounded=0;orthogonalLoop=1;jettySize=auto;html=1;entryX=0.5;entryY=0;entryDx=0;entryDy=0;" edge="1" parent="WIyWlLk6GJQsqaUBKTNV-1" source="e43gsBU2ThRUack3cbK4-11" target="e43gsBU2ThRUack3cbK4-13">
          <mxGeometry relative="1" as="geometry" />
        </mxCell>
        <mxCell id="e43gsBU2ThRUack3cbK4-10" value="Distributed transaction is successful" style="edgeLabel;html=1;align=center;verticalAlign=middle;resizable=0;points=[];fontStyle=1" vertex="1" connectable="0" parent="e43gsBU2ThRUack3cbK4-9">
          <mxGeometry x="-0.25" y="3" relative="1" as="geometry">
            <mxPoint as="offset" />
          </mxGeometry>
        </mxCell>
        <mxCell id="e43gsBU2ThRUack3cbK4-11" value="Ensure each step is successfully executed" style="rhombus;whiteSpace=wrap;html=1;" vertex="1" parent="WIyWlLk6GJQsqaUBKTNV-1">
          <mxGeometry x="315" y="360" width="170" height="120" as="geometry" />
        </mxCell>
        <mxCell id="e43gsBU2ThRUack3cbK4-12" value="Revert completed local transactions" style="rounded=1;whiteSpace=wrap;html=1;fontSize=12;glass=0;strokeWidth=1;shadow=0;" vertex="1" parent="WIyWlLk6GJQsqaUBKTNV-1">
          <mxGeometry x="550" y="400" width="120" height="40" as="geometry" />
        </mxCell>
        <mxCell id="e43gsBU2ThRUack3cbK4-13" value="Send a confirmation email to the customer" style="rounded=1;whiteSpace=wrap;html=1;fontSize=12;glass=0;strokeWidth=1;shadow=0;" vertex="1" parent="WIyWlLk6GJQsqaUBKTNV-1">
          <mxGeometry x="340" y="520" width="120" height="40" as="geometry" />
        </mxCell>
      </root>
    </mxGraphModel>
  </diagram>
</mxfile>
